<svg width="36" height="34" viewBox="0 0 36 34" fill="none" xmlns="http://www.w3.org/2000/svg">
<path d="M18 29.25C19.6555 29.25 21.1675 29.0697 22.5465 28.7582L19.4718 25.6835C18.994 25.7202 18.5093 25.75 18 25.75C8.63577 25.75 5.00802 19.0195 4.12952 17C4.78918 15.5279 5.68011 14.1708 6.76852 12.9802L4.32202 10.5337C1.63052 13.451 0.610274 16.3892 0.591024 16.447C0.47031 16.8064 0.47031 17.1954 0.591024 17.5547C0.627774 17.6702 4.64227 29.25 18 29.25ZM18 4.75C14.7853 4.75 12.1445 5.443 9.94302 6.46675L3.48727 0.0127487L1.01277 2.48725L32.5128 33.9873L34.9873 31.5127L29.179 25.7045C33.7535 22.2903 35.3863 17.6282 35.4108 17.5547C35.5315 17.1954 35.5315 16.8064 35.4108 16.447C35.3723 16.3297 31.3578 4.75 18 4.75ZM26.701 23.2265L22.711 19.2365C23.0435 18.554 23.25 17.8032 23.25 17C23.25 14.1282 20.8718 11.75 18 11.75C17.1968 11.75 16.446 11.9565 15.7653 12.2907L12.6013 9.12675C14.3382 8.53072 16.1638 8.23425 18 8.25C27.3643 8.25 30.992 14.9805 31.8705 17C31.342 18.211 29.83 21.0985 26.701 23.2265Z" fill="black"/>
</svg>
