<svg width="25" height="25" viewBox="0 0 25 25" fill="none" xmlns="http://www.w3.org/2000/svg">
<g clip-path="url(#clip0_111_1267)">
<path d="M25 1.70303C25.0019 1.24653 24.8257 0.817968 24.504 0.496191C24.1822 0.174413 23.7528 -0.0014654 23.2972 0.000194752C22.842 0.00209905 22.4135 0.180956 22.0906 0.503808C21.9539 0.640527 21.7052 0.935839 21.5691 1.09976C21.4263 1.27187 21.4499 1.52725 21.622 1.67007C21.7941 1.81294 22.0495 1.78931 22.1923 1.61719C22.4054 1.36055 22.5815 1.15845 22.6633 1.07661C22.8341 0.905859 23.0604 0.81123 23.3005 0.810204C23.3019 0.810204 23.3031 0.810204 23.3044 0.810204C23.5418 0.810204 23.7643 0.902001 23.9312 1.06894C24.099 1.23677 24.191 1.46074 24.1899 1.69961C24.1889 1.9397 24.0943 2.16597 23.9235 2.33682C23.7707 2.4897 23.2452 2.90654 22.4923 3.43247C22.0469 2.67104 21.2209 2.1581 20.277 2.1581H14.3461C13.5455 2.1581 12.7929 2.46987 12.2267 3.03594L0.371729 14.8911C0.132031 15.1308 0 15.4495 0 15.7884C0 16.1274 0.132031 16.4461 0.371729 16.6858L8.31445 24.6285C8.56191 24.8759 8.88682 24.9996 9.21182 24.9996C9.53682 24.9996 9.86182 24.8759 10.1092 24.6285L21.9643 12.7735C22.5303 12.2074 22.8421 11.4547 22.8421 10.6541V4.72329C22.8421 4.54824 22.8244 4.37734 22.7908 4.21206C23.6478 3.62236 24.2769 3.12905 24.4963 2.90962C24.8192 2.58677 24.9981 2.15825 25 1.70303ZM22.0321 10.6541C22.0321 11.2383 21.8045 11.7876 21.3915 12.2006L9.53643 24.0558C9.35752 24.2347 9.06621 24.2347 8.88726 24.0558L0.944531 16.113C0.857861 16.0264 0.810059 15.9111 0.810059 15.7884C0.810059 15.6658 0.857812 15.5505 0.944531 15.4639L12.7996 3.60884C13.2127 3.19575 13.7619 2.96826 14.3461 2.96826H20.2769C20.9429 2.96826 21.5235 3.34116 21.8208 3.88911C21.3423 4.20591 20.8066 4.54277 20.2383 4.87402C20.2206 4.85459 20.2025 4.83535 20.1837 4.81655C19.5204 4.15327 18.4412 4.15327 17.7779 4.81655C17.1146 5.47983 17.1146 6.55903 17.7779 7.22231C18.1096 7.55395 18.5452 7.71973 18.9808 7.71973C19.4164 7.71973 19.8521 7.55395 20.1837 7.22231C20.6264 6.77959 20.7731 6.15171 20.6249 5.58574C21.1192 5.298 21.5938 5.00391 22.0319 4.71938C22.0319 4.72075 22.032 4.72202 22.032 4.72334V10.6541H22.0321ZM18.6191 6.20142C18.6902 6.34287 18.833 6.42451 18.9812 6.42451C19.0424 6.42451 19.1046 6.41059 19.163 6.3812C19.4004 6.26177 19.637 6.13755 19.8712 6.0103C19.8735 6.2415 19.7871 6.47344 19.611 6.64951C19.2636 6.99692 18.6983 6.99692 18.3509 6.64951C18.0035 6.30205 18.0035 5.73682 18.3509 5.38935C18.5246 5.21562 18.7528 5.12881 18.981 5.12881C19.1616 5.12881 19.3417 5.18418 19.4954 5.29302C19.2662 5.41763 19.0335 5.53965 18.799 5.65767C18.599 5.75811 18.5185 6.00161 18.6191 6.20142Z" fill="black"/>
<path d="M12.0671 8.25006C11.8435 8.25006 11.6621 8.43136 11.6621 8.65509V17.2088C11.6621 17.4324 11.8435 17.6138 12.0671 17.6138C12.2908 17.6138 12.4722 17.4324 12.4722 17.2088V8.65509C12.4722 8.43136 12.2908 8.25006 12.0671 8.25006Z" fill="black"/>
<path d="M10.2156 11.7292C9.55239 11.0658 8.47314 11.0659 7.80996 11.7291C7.14668 12.3924 7.14668 13.4716 7.80996 14.1349C8.14165 14.4666 8.5772 14.6323 9.01284 14.6323C9.44839 14.6323 9.88408 14.4664 10.2157 14.1349C10.537 13.8135 10.714 13.3864 10.714 12.932C10.714 12.4776 10.537 12.0504 10.2156 11.7292ZM9.64287 13.562C9.29541 13.9095 8.73018 13.9094 8.38276 13.562C8.03535 13.2146 8.03535 12.6493 8.38276 12.3019C8.55649 12.1281 8.78467 12.0413 9.01284 12.0413C9.24102 12.0413 9.46919 12.1281 9.64292 12.3019C9.81123 12.4702 9.90391 12.6939 9.90391 12.932C9.90386 13.17 9.81118 13.3937 9.64287 13.562Z" fill="black"/>
<path d="M16.325 11.7291C15.6617 11.0658 14.5825 11.0659 13.9193 11.7291C13.2561 12.3924 13.2561 13.4716 13.9193 14.1349C14.251 14.4665 14.6866 14.6323 15.1222 14.6323C15.5578 14.6323 15.9935 14.4665 16.325 14.1349C16.9883 13.4716 16.9883 12.3924 16.325 11.7291ZM15.7522 13.562C15.4047 13.9095 14.8395 13.9094 14.4921 13.562C14.1447 13.2146 14.1447 12.6493 14.4921 12.3019C14.6658 12.1282 14.894 12.0413 15.1222 12.0413C15.3503 12.0413 15.5785 12.1282 15.7522 12.3019C16.0997 12.6493 16.0997 13.2146 15.7522 13.562Z" fill="black"/>
</g>
<defs>
<clipPath id="clip0_111_1267">
<rect width="25" height="25" fill="white"/>
</clipPath>
</defs>
</svg>
